<svg xmlns="http://www.w3.org/2000/svg" xmlns:xlink="http://www.w3.org/1999/xlink" width="1640" zoomAndPan="magnify" viewBox="0 0 1230 693.000001" height="924" preserveAspectRatio="xMidYMid meet" version="1.0"><defs><clipPath id="4c696d8e1d"><path d="M 5 4.398438 L 365 4.398438 L 365 463 L 5 463 Z M 5 4.398438 " clip-rule="nonzero"/></clipPath><clipPath id="0565983563"><path d="M 820 4.398438 L 1180 4.398438 L 1180 463 L 820 463 Z M 820 4.398438 " clip-rule="nonzero"/></clipPath><clipPath id="91413d5dc5"><path d="M 147 529 L 290.214844 529 L 290.214844 687.414062 L 147 687.414062 Z M 147 529 " clip-rule="nonzero"/></clipPath><clipPath id="07f04dda3e"><path d="M 598 529 L 742 529 L 742 687.414062 L 598 687.414062 Z M 598 529 " clip-rule="nonzero"/></clipPath><clipPath id="c3806e84e7"><path d="M 764 533 L 888 533 L 888 687.414062 L 764 687.414062 Z M 764 533 " clip-rule="nonzero"/></clipPath><clipPath id="05a03f4471"><path d="M 37 70.1875 L 297.257812 70.1875 L 297.257812 110.46875 L 37 110.46875 Z M 396.222656 197.390625 L 397 197.390625 L 397 239.8125 L 396.222656 239.8125 Z M 186.988281 401.449219 L 397 401.449219 L 397 432.195312 L 186.988281 432.195312 Z M 186.988281 401.449219 " clip-rule="nonzero"/></clipPath><clipPath id="a7a40b5423"><path d="M 630.710938 110.46875 L 800 110.46875 L 800 146.511719 L 630.710938 146.511719 Z M 444 197.390625 L 800 197.390625 L 800 239.8125 L 444 239.8125 Z M 444 197.390625 " clip-rule="nonzero"/></clipPath><clipPath id="a43f782a88"><path d="M 899.535156 70.1875 L 1090.394531 70.1875 L 1090.394531 110.46875 L 899.535156 110.46875 Z M 1031.570312 239.8125 L 1198.550781 239.8125 L 1198.550781 263.117188 L 1031.570312 263.117188 Z M 857.535156 413.636719 L 1211 413.636719 L 1211 450.746094 L 857.535156 450.746094 Z M 857.535156 413.636719 " clip-rule="nonzero"/></clipPath><clipPath id="6f8ca1b2c7"><path d="M 109.578125 570.527344 L 155 570.527344 L 155 597.058594 L 109.578125 597.058594 Z M 109.578125 570.527344 " clip-rule="nonzero"/></clipPath><clipPath id="5ad63c6741"><path d="M 179 570.527344 L 250.605469 570.527344 L 250.605469 597.058594 L 179 597.058594 Z M 179 570.527344 " clip-rule="nonzero"/></clipPath><clipPath id="7ebbc3d4e7"><path d="M 354.523438 646.851562 L 450.378906 646.851562 L 450.378906 668.054688 L 354.523438 668.054688 Z M 354.523438 646.851562 " clip-rule="nonzero"/></clipPath><clipPath id="68992788d7"><path d="M 524 646.851562 L 595.210938 646.851562 L 595.210938 668.054688 L 524 668.054688 Z M 524 646.851562 " clip-rule="nonzero"/></clipPath><clipPath id="6cd1368996"><path d="M 706.554688 597.058594 L 774 597.058594 L 774 619.289062 L 706.554688 619.289062 Z M 706.554688 597.058594 " clip-rule="nonzero"/></clipPath><clipPath id="7c28a74bc7"><path d="M 795 597.058594 L 919.421875 597.058594 L 919.421875 619.289062 L 795 619.289062 Z M 795 597.058594 " clip-rule="nonzero"/></clipPath><clipPath id="66b77ad88b"><path d="M 1000.269531 672.289062 L 1071 672.289062 L 1071 684 L 1000.269531 684 Z M 1000.269531 672.289062 " clip-rule="nonzero"/></clipPath><clipPath id="8bf48e6323"><path d="M 1165.910156 585.371094 L 1229 585.371094 L 1229 608.753906 L 1165.910156 608.753906 Z M 1102.460938 672.289062 L 1222.929688 672.289062 L 1222.929688 684 L 1102.460938 684 Z M 1102.460938 672.289062 " clip-rule="nonzero"/></clipPath></defs><g clip-path="url(#4c696d8e1d)"><path fill="#363636" d="M 204.539062 462.003906 L 311.585938 462.003906 L 311.585938 432.203125 L 204.324219 432.203125 Z M 311.585938 287.695312 L 311.585938 182.019531 L 217.042969 182.019531 L 205.246094 287.695312 L 119.035156 287.695312 L 199.257812 110.46875 L 90.695312 110.46875 L 5.722656 296.246094 L 5.722656 365.609375 L 203.84375 365.609375 L 204.09375 401.449219 L 311.585938 401.449219 L 311.585938 365.609375 L 364.414062 365.609375 L 364.414062 287.695312 Z M 139.207031 4.410156 L 109.113281 70.179688 L 217.519531 70.179688 L 232.34375 37.414062 L 139.207031 4.410156 " fill-opacity="1" fill-rule="nonzero"/></g><path fill="#363636" d="M 757.847656 146.496094 L 648.550781 146.496094 C 651.195312 160.300781 653 177.277344 654.019531 197.378906 L 765.828125 197.378906 C 764.273438 179.160156 761.601562 162.210938 757.847656 146.496094 Z M 722.0625 66.488281 C 691.683594 26.453125 647.78125 6.410156 590.339844 6.410156 C 532.851562 6.410156 488.960938 26.453125 458.609375 66.488281 C 434.183594 98.726562 419.578125 142.332031 414.804688 197.378906 L 526.648438 197.378906 C 527.703125 177.160156 529.582031 160.148438 532.28125 146.371094 C 536.667969 123.925781 543.515625 107.859375 552.800781 98.191406 C 562.0625 88.496094 574.554688 83.65625 590.339844 83.65625 C 606.085938 83.65625 618.582031 88.273438 627.867188 97.523438 C 631.308594 100.925781 634.367188 105.25 637.101562 110.46875 L 746.59375 110.46875 C 739.972656 93.992188 731.792969 79.339844 722.0625 66.488281 Z M 654.976562 239.804688 C 654.976562 279.71875 652.785156 310.972656 648.363281 333.585938 C 643.964844 356.253906 637.128906 372.320312 627.867188 381.765625 C 618.582031 391.246094 606.085938 395.980469 590.339844 395.980469 C 574.554688 395.980469 562.0625 391.121094 552.800781 381.453125 C 543.515625 371.777344 536.667969 355.59375 532.28125 332.917969 C 527.867188 310.300781 525.667969 279.269531 525.667969 239.804688 L 413.054688 239.804688 C 413.089844 314.476562 428.265625 372.035156 458.609375 412.484375 C 488.960938 452.96875 532.851562 473.234375 590.339844 473.234375 C 647.78125 473.234375 691.683594 452.96875 722.0625 412.484375 C 752.378906 372.035156 767.542969 314.476562 767.589844 239.804688 L 654.976562 239.804688 " fill-opacity="1" fill-rule="nonzero"/><g clip-path="url(#0565983563)"><path fill="#363636" d="M 953.867188 4.410156 L 923.800781 70.179688 L 1032.210938 70.179688 L 1047.03125 37.414062 Z M 1019.144531 450.746094 L 1019.226562 462.003906 L 1126.269531 462.003906 L 1126.269531 450.746094 Z M 1126.269531 287.695312 L 1126.269531 263.117188 L 1022.667969 263.117188 L 1019.898438 287.695312 L 933.730469 287.695312 L 1013.953125 110.46875 L 905.378906 110.46875 L 820.417969 296.246094 L 820.417969 365.609375 L 1018.527344 365.609375 L 1018.886719 413.628906 L 1126.269531 413.628906 L 1126.269531 365.609375 L 1179.109375 365.609375 L 1179.109375 287.695312 Z M 1031.738281 182.019531 L 1025.285156 239.804688 L 1126.269531 239.804688 L 1126.269531 182.019531 L 1031.738281 182.019531 " fill-opacity="1" fill-rule="nonzero"/></g><path fill="#363636" d="M 89.390625 597.058594 C 89.550781 613.757812 91.175781 631.476562 94.386719 650.238281 L 47.625 533.679688 L 1.085938 533.679688 L 1.085938 683.816406 L 34.386719 683.816406 L 34.386719 628.792969 C 34.386719 616.8125 33.976562 606.449219 33.117188 597.699219 C 32.296875 588.953125 31.117188 578.875 29.585938 567.492188 L 75.207031 683.816406 L 122.886719 683.816406 L 122.886719 597.058594 Z M 89.363281 533.679688 L 89.363281 570.539062 L 122.886719 570.539062 L 122.886719 533.679688 L 89.363281 533.679688 " fill-opacity="1" fill-rule="nonzero"/><g clip-path="url(#91413d5dc5)"><path fill="#363636" d="M 271.25 550.566406 C 258.71875 536.859375 241.183594 529.988281 218.671875 529.988281 C 203.941406 529.988281 191.214844 533.136719 180.597656 539.40625 C 169.933594 545.707031 161.757812 554.765625 156.0625 566.597656 C 155.429688 567.902344 154.855469 569.207031 154.3125 570.539062 L 193.414062 570.539062 C 193.789062 569.8125 194.199219 569.109375 194.621094 568.4375 C 199.867188 560.136719 207.882812 556 218.671875 556 C 229.484375 556 237.527344 560.109375 242.847656 568.347656 C 248.191406 576.585938 250.828125 590.007812 250.828125 608.636719 C 250.828125 627.265625 248.21875 640.757812 242.972656 649.058594 C 237.726562 657.359375 229.644531 661.488281 218.671875 661.488281 C 208.042969 661.488281 200.054688 657.324219 194.71875 648.925781 C 189.398438 640.570312 186.765625 627.113281 186.765625 608.636719 C 186.765625 604.535156 186.890625 600.65625 187.175781 597.058594 L 148.046875 597.058594 C 147.699219 600.78125 147.511719 604.632812 147.511719 608.636719 C 147.511719 625.273438 150.371094 639.453125 156.0625 651.222656 C 161.757812 662.988281 169.933594 671.988281 180.597656 678.1875 C 191.214844 684.390625 203.941406 687.507812 218.671875 687.507812 C 233.425781 687.507812 246.152344 684.363281 256.871094 678.0625 C 267.59375 671.789062 275.800781 662.730469 281.519531 650.910156 C 287.214844 639.042969 290.082031 624.953125 290.082031 608.636719 C 290.082031 583.644531 283.78125 564.308594 271.25 550.566406 " fill-opacity="1" fill-rule="nonzero"/></g><path fill="#363636" d="M 338.433594 668.046875 L 338.433594 683.816406 L 375.847656 683.816406 L 375.847656 668.046875 Z M 297.589844 533.679688 L 297.589844 560.96875 L 338.433594 560.96875 L 338.433594 646.863281 L 375.847656 646.863281 L 375.847656 560.96875 L 414.839844 560.96875 L 418.496094 533.679688 L 297.589844 533.679688 " fill-opacity="1" fill-rule="nonzero"/><path fill="#363636" d="M 492.617188 668.046875 L 492.617188 683.816406 L 530.027344 683.816406 L 530.027344 668.046875 Z M 582.921875 559.027344 L 586.808594 533.679688 L 492.617188 533.679688 L 492.617188 646.863281 L 530.027344 646.863281 L 530.027344 624.253906 L 576.085938 624.253906 L 576.085938 598.90625 L 530.027344 598.90625 L 530.027344 559.027344 L 582.921875 559.027344 " fill-opacity="1" fill-rule="nonzero"/><g clip-path="url(#07f04dda3e)"><path fill="#363636" d="M 701.863281 619.289062 C 701.039062 632.519531 698.554688 642.449219 694.355469 649.058594 C 689.109375 657.359375 680.992188 661.488281 670.054688 661.488281 C 659.425781 661.488281 651.445312 657.324219 646.101562 648.925781 C 640.792969 640.570312 638.109375 627.113281 638.109375 608.636719 C 638.109375 590.160156 640.746094 576.746094 646.011719 568.4375 C 651.257812 560.136719 659.265625 556 670.054688 556 C 680.867188 556 688.921875 560.109375 694.230469 568.347656 C 698.394531 574.773438 700.90625 584.308594 701.800781 597.058594 L 740.957031 597.058594 C 739.300781 577.597656 733.160156 562.113281 722.632812 550.566406 C 710.101562 536.859375 692.578125 529.988281 670.054688 529.988281 C 655.324219 529.988281 642.597656 533.136719 631.96875 539.40625 C 621.324219 545.707031 613.148438 554.765625 607.445312 566.597656 C 601.753906 578.453125 598.894531 592.445312 598.894531 608.636719 C 598.894531 625.273438 601.753906 639.453125 607.445312 651.222656 C 613.148438 662.988281 621.324219 671.988281 631.96875 678.1875 C 642.597656 684.390625 655.324219 687.507812 670.054688 687.507812 C 684.820312 687.507812 697.535156 684.363281 708.261719 678.0625 C 718.976562 671.789062 727.210938 662.730469 732.910156 650.910156 C 737.328125 641.714844 740.035156 631.152344 741.019531 619.289062 L 701.863281 619.289062 " fill-opacity="1" fill-rule="nonzero"/></g><g clip-path="url(#c3806e84e7)"><path fill="#363636" d="M 850.039062 619.289062 L 850.039062 632.457031 C 850.039062 642.160156 848.089844 649.34375 844.210938 654.019531 C 840.332031 658.726562 834.128906 661.078125 825.601562 661.078125 C 817.238281 661.078125 811.132812 658.726562 807.253906 654.019531 C 803.367188 649.34375 801.425781 642.160156 801.425781 632.457031 L 801.425781 619.289062 L 764.015625 619.289062 L 764.015625 633.984375 C 764.015625 650.292969 769.269531 663.300781 779.769531 672.96875 C 790.265625 682.664062 805.539062 687.507812 825.601562 687.507812 C 838.992188 687.507812 850.324219 685.183594 859.609375 680.574219 C 868.871094 675.964844 875.832031 669.601562 880.480469 661.488281 C 885.089844 653.410156 887.414062 644.253906 887.414062 633.984375 L 887.414062 619.289062 Z M 850.039062 533.679688 L 850.039062 597.058594 L 887.414062 597.058594 L 887.414062 533.679688 Z M 764.015625 533.679688 L 764.015625 597.058594 L 801.425781 597.058594 L 801.425781 533.679688 L 764.015625 533.679688 " fill-opacity="1" fill-rule="nonzero"/></g><path fill="#363636" d="M 1005.585938 533.679688 L 1005.585938 594.324219 C 1005.585938 611.816406 1007.242188 630.449219 1010.582031 650.238281 L 963.824219 533.679688 L 917.3125 533.679688 L 917.3125 683.816406 L 950.621094 683.816406 L 950.621094 628.792969 C 950.621094 616.8125 950.175781 606.449219 949.34375 597.699219 C 948.519531 588.953125 947.339844 578.875 945.8125 567.492188 L 986.90625 672.300781 L 1039.113281 672.300781 L 1039.113281 533.679688 L 1005.585938 533.679688 " fill-opacity="1" fill-rule="nonzero"/><path fill="#363636" d="M 1158.402344 608.769531 C 1158.3125 627.113281 1155.09375 639.890625 1148.828125 647.085938 C 1142.441406 654.402344 1133.082031 658.019531 1120.773438 658.019531 L 1108.421875 658.019531 L 1108.421875 559.476562 L 1120.292969 559.476562 C 1128.371094 559.476562 1135.109375 560.808594 1140.589844 563.480469 C 1146.058594 566.160156 1150.421875 571.019531 1153.601562 578.078125 C 1154.585938 580.242188 1155.417969 582.652344 1156.078125 585.359375 L 1195.207031 585.359375 C 1192.113281 569.019531 1185.277344 557.089844 1174.6875 549.613281 C 1159.707031 538.996094 1139.820312 533.679688 1115.046875 533.679688 L 1071.054688 533.679688 L 1071.054688 672.300781 L 1167.054688 672.300781 C 1169.949219 670.648438 1172.65625 668.804688 1175.265625 666.804688 C 1189.738281 655.574219 1197.058594 636.210938 1197.171875 608.769531 L 1158.402344 608.769531 " fill-opacity="1" fill-rule="nonzero"/><g clip-path="url(#05a03f4471)"><path fill="#363636" d="M 343.394531 365.59375 L 343.394531 461.992188 L 236.339844 461.992188 L 235.644531 365.59375 L 37.535156 365.59375 L 37.535156 296.265625 L 170.996094 4.417969 L 264.144531 37.433594 L 150.84375 287.679688 L 237.039062 287.679688 L 248.851562 182.039062 L 343.394531 182.039062 L 343.394531 287.679688 L 396.222656 287.679688 L 396.222656 365.59375 L 343.394531 365.59375 " fill-opacity="1" fill-rule="nonzero"/></g><g clip-path="url(#a7a40b5423)"><path fill="#363636" d="M 584.601562 98.183594 C 575.324219 107.867188 568.496094 123.933594 564.089844 146.378906 C 559.683594 168.832031 557.484375 199.863281 557.484375 239.484375 C 557.484375 279.101562 559.683594 310.25 564.089844 332.910156 C 568.496094 355.585938 575.324219 371.765625 584.601562 381.445312 C 593.859375 391.128906 606.375 395.964844 622.128906 395.964844 C 637.878906 395.964844 650.398438 391.246094 659.675781 381.773438 C 668.9375 372.3125 675.773438 356.246094 680.179688 333.570312 C 684.578125 310.902344 686.785156 279.539062 686.785156 239.484375 C 686.785156 199.425781 684.578125 168.0625 680.179688 145.386719 C 675.773438 122.726562 668.9375 106.769531 659.675781 97.523438 C 650.398438 88.273438 637.878906 83.65625 622.128906 83.65625 C 606.375 83.65625 593.859375 88.507812 584.601562 98.183594 Z M 753.871094 66.488281 C 784.214844 106.546875 799.390625 164.203125 799.390625 239.484375 C 799.390625 314.324219 784.214844 371.972656 753.871094 412.476562 C 723.5 452.976562 679.589844 473.214844 622.128906 473.214844 C 564.671875 473.214844 520.75 452.976562 490.410156 412.476562 C 460.046875 371.972656 444.878906 314.324219 444.878906 239.484375 C 444.878906 164.203125 460.046875 106.546875 490.410156 66.488281 C 520.75 26.433594 564.671875 6.402344 622.128906 6.402344 C 679.589844 6.402344 723.5 26.433594 753.871094 66.488281 " fill-opacity="1" fill-rule="nonzero"/></g><g clip-path="url(#a43f782a88)"><path fill="#363636" d="M 1158.082031 365.59375 L 1158.082031 461.992188 L 1051.027344 461.992188 L 1050.339844 365.59375 L 852.21875 365.59375 L 852.21875 296.265625 L 985.691406 4.417969 L 1078.839844 37.433594 L 965.53125 287.679688 L 1051.722656 287.679688 L 1063.539062 182.039062 L 1158.082031 182.039062 L 1158.082031 287.679688 L 1210.910156 287.679688 L 1210.910156 365.59375 L 1158.082031 365.59375 " fill-opacity="1" fill-rule="nonzero"/></g><g clip-path="url(#6f8ca1b2c7)"><path fill="#363636" d="M 107.023438 683.816406 L 61.40625 567.472656 C 62.925781 578.882812 64.105469 588.960938 64.945312 597.699219 C 65.777344 606.4375 66.195312 616.792969 66.195312 628.785156 L 66.195312 683.816406 L 32.894531 683.816406 L 32.894531 533.679688 L 79.421875 533.679688 L 126.183594 650.238281 C 122.832031 630.449219 121.160156 611.816406 121.160156 594.339844 L 121.160156 533.679688 L 154.695312 533.679688 L 154.695312 683.816406 L 107.023438 683.816406 " fill-opacity="1" fill-rule="nonzero"/></g><g clip-path="url(#5ad63c6741)"><path fill="#363636" d="M 226.429688 568.445312 C 221.183594 576.757812 218.5625 590.148438 218.5625 608.636719 C 218.5625 627.125 221.21875 640.5625 226.535156 648.933594 C 231.863281 657.316406 239.84375 661.507812 250.488281 661.507812 C 261.4375 661.507812 269.535156 657.351562 274.78125 649.042969 C 280.027344 640.742188 282.65625 627.265625 282.65625 608.636719 C 282.65625 590.007812 279.992188 576.578125 274.664062 568.339844 C 269.347656 560.109375 261.285156 555.992188 250.488281 555.992188 C 239.691406 555.992188 231.667969 560.144531 226.429688 568.445312 Z M 303.058594 550.578125 C 315.609375 564.300781 321.882812 583.65625 321.882812 608.636719 C 321.882812 624.960938 319.03125 639.042969 313.328125 650.882812 C 307.625 662.730469 299.414062 671.789062 288.695312 678.070312 C 277.972656 684.363281 265.234375 687.5 250.488281 687.5 C 235.742188 687.5 223.042969 684.390625 212.398438 678.1875 C 201.753906 671.976562 193.582031 662.988281 187.882812 651.210938 C 182.179688 639.4375 179.328125 625.257812 179.328125 608.636719 C 179.328125 592.464844 182.179688 578.453125 187.882812 566.605469 C 193.582031 554.765625 201.753906 545.699219 212.398438 539.417969 C 223.042969 533.136719 235.742188 530 250.488281 530 C 272.992188 530 290.519531 536.851562 303.058594 550.578125 " fill-opacity="1" fill-rule="nonzero"/></g><g clip-path="url(#7ebbc3d4e7)"><path fill="#363636" d="M 407.636719 560.976562 L 407.636719 683.816406 L 370.234375 683.816406 L 370.234375 560.976562 L 329.40625 560.976562 L 329.40625 533.679688 L 450.296875 533.679688 L 446.640625 560.976562 L 407.636719 560.976562 " fill-opacity="1" fill-rule="nonzero"/></g><g clip-path="url(#68992788d7)"><path fill="#363636" d="M 561.828125 559.027344 L 561.828125 598.890625 L 607.902344 598.890625 L 607.902344 624.238281 L 561.828125 624.238281 L 561.828125 683.816406 L 524.414062 683.816406 L 524.414062 533.679688 L 618.617188 533.679688 L 614.746094 559.027344 L 561.828125 559.027344 " fill-opacity="1" fill-rule="nonzero"/></g><g clip-path="url(#6cd1368996)"><path fill="#363636" d="M 677.800781 568.445312 C 672.554688 576.757812 669.9375 590.148438 669.9375 608.636719 C 669.9375 627.125 672.59375 640.5625 677.917969 648.933594 C 683.246094 657.316406 691.226562 661.507812 701.871094 661.507812 C 712.820312 661.507812 720.917969 657.351562 726.164062 649.042969 C 731.410156 640.742188 734.039062 627.265625 734.039062 608.636719 C 734.039062 590.007812 731.375 576.578125 726.046875 568.339844 C 720.730469 560.109375 712.667969 555.992188 701.871094 555.992188 C 691.074219 555.992188 683.058594 560.144531 677.800781 568.445312 Z M 754.441406 550.578125 C 766.992188 564.300781 773.265625 583.65625 773.265625 608.636719 C 773.265625 624.960938 770.414062 639.042969 764.710938 650.882812 C 759.019531 662.730469 750.796875 671.789062 740.070312 678.070312 C 729.355469 684.363281 716.617188 687.5 701.871094 687.5 C 687.125 687.5 674.425781 684.390625 663.78125 678.1875 C 653.132812 671.976562 644.964844 662.988281 639.261719 651.210938 C 633.5625 639.4375 630.710938 625.257812 630.710938 608.636719 C 630.710938 592.464844 633.5625 578.453125 639.261719 566.605469 C 644.964844 554.765625 653.132812 545.699219 663.78125 539.417969 C 674.425781 533.136719 687.125 530 701.871094 530 C 724.375 530 741.902344 536.851562 754.441406 550.578125 " fill-opacity="1" fill-rule="nonzero"/></g><g clip-path="url(#7c28a74bc7)"><path fill="#363636" d="M 912.28125 661.507812 C 907.640625 669.59375 900.6875 675.953125 891.410156 680.574219 C 882.132812 685.183594 870.808594 687.5 857.429688 687.5 C 837.355469 687.5 822.074219 682.664062 811.578125 672.988281 C 801.085938 663.3125 795.839844 650.308594 795.839844 633.984375 L 795.839844 533.679688 L 833.253906 533.679688 L 833.253906 632.46875 C 833.253906 642.144531 835.183594 649.328125 839.0625 654.027344 C 842.941406 658.726562 849.054688 661.066406 857.429688 661.066406 C 865.9375 661.066406 872.140625 658.726562 876.019531 654.027344 C 879.890625 649.328125 881.828125 642.144531 881.828125 632.46875 L 881.828125 533.679688 L 919.242188 533.679688 L 919.242188 633.984375 C 919.242188 644.242188 916.917969 653.410156 912.28125 661.507812 " fill-opacity="1" fill-rule="nonzero"/></g><g clip-path="url(#66b77ad88b)"><path fill="#363636" d="M 1023.25 683.816406 L 977.621094 567.472656 C 979.140625 578.882812 980.320312 588.960938 981.160156 597.699219 C 982 606.4375 982.414062 616.792969 982.414062 628.785156 L 982.414062 683.816406 L 949.121094 683.816406 L 949.121094 533.679688 L 995.640625 533.679688 L 1042.402344 650.238281 C 1039.058594 630.449219 1037.386719 611.816406 1037.386719 594.339844 L 1037.386719 533.679688 L 1070.921875 533.679688 L 1070.921875 683.816406 L 1023.25 683.816406 " fill-opacity="1" fill-rule="nonzero"/></g><g clip-path="url(#8bf48e6323)"><path fill="#363636" d="M 1140.25 658.039062 L 1152.566406 658.039062 C 1164.882812 658.039062 1174.230469 654.386719 1180.621094 647.09375 C 1187.011719 639.800781 1190.203125 626.765625 1190.203125 607.992188 C 1190.203125 595.136719 1188.601562 585.171875 1185.410156 578.085938 C 1182.21875 571.019531 1177.886719 566.140625 1172.40625 563.46875 C 1166.9375 560.796875 1160.171875 559.457031 1152.109375 559.457031 L 1140.25 559.457031 Z M 1206.511719 549.601562 C 1221.484375 560.207031 1228.980469 579.679688 1228.980469 607.992188 C 1228.980469 635.871094 1221.679688 655.476562 1207.085938 666.8125 C 1192.480469 678.144531 1173.550781 683.816406 1150.285156 683.816406 L 1102.847656 683.816406 L 1102.847656 533.679688 L 1146.863281 533.679688 C 1171.648438 533.679688 1191.535156 538.988281 1206.511719 549.601562 " fill-opacity="1" fill-rule="nonzero"/></g></svg>